<svg xmlns="http://www.w3.org/2000/svg" width="24" height="30" viewBox="0 0 24 30" fill="none">
  <circle cx="12" cy="9" r="9" fill="#1B1B21"/>
  <path d="M20.5006 13.0838C21.1198 11.8755 21.2174 10.5691 21.2174 9.132C21.2174 4.11465 17.2341 0 12.0001 0C6.76602 0 2.78262 4.11402 2.78262 9.132C2.78262 10.5692 2.88016 11.8763 3.4994 13.0845L0 18.9403C0 18.9403 2.3944 19.7972 4.86954 20.2933C6.52007 22.08 7.86039 24 7.86039 24L11.1305 17.9257C11.3309 17.9378 11.6224 17.9257 11.826 17.9257C12.0297 17.9257 12.322 17.9378 12.5217 17.9257L16 23.6755C16 23.6755 17.4806 22.0808 19.1305 20.2933C21.6056 19.7973 24 18.9403 24 18.9403L20.5006 13.0838ZM7.65216 21.6462C7.65216 21.6462 6.49211 20.1971 5.37837 19.1435C3.79868 18.7067 1.73914 18.264 1.73914 18.264L4.17386 14.2054C5.46354 15.8421 7.58126 17.3876 9.72233 17.8948L7.65216 21.6462ZM11.826 16.911C9.7885 16.911 4.02285 15.7265 3.82608 9.132C3.70235 4.98521 7.5706 1.01467 11.826 1.01467C16.0813 1.01467 20.1493 4.98368 20.1739 9.132C20.2111 15.4042 13.8637 16.911 11.826 16.911ZM16 21.6462L13.913 17.9257C16.0542 17.4185 18.5365 15.842 19.8261 14.2052L22.2608 18.264C22.2602 18.263 20.2013 18.706 18.6216 19.1434L16 21.6462ZM12.0001 3.75217C9.01803 3.75217 6.60076 6.10397 6.60076 9.00517C6.60076 11.9064 9.018 14.2582 12.0001 14.2582C14.982 14.2582 17.3992 11.9064 17.3992 9.00517C17.3992 6.10397 14.982 3.75217 12.0001 3.75217ZM12.174 13.1906C10.8343 13.1906 7.87543 12.675 7.65213 8.79383C7.53312 6.72522 10.0443 4.73509 12.174 4.73509C14.3034 4.73509 16.2939 7.06078 16.3478 9.13197C16.4185 11.8505 13.5136 13.1906 12.174 13.1906Z" fill="#7C67FF"/>
</svg>