<svg width="10" height="10" viewBox="0 0 10 10" fill="none" xmlns="http://www.w3.org/2000/svg">
<path fill-rule="evenodd" clip-rule="evenodd" d="M2.92295 2.84615C3.43275 2.84615 3.84603 2.43287 3.84603 1.92308C3.84603 1.41328 3.43275 1 2.92295 1C2.41316 1 1.99988 1.41328 1.99988 1.92308C1.99988 2.43287 2.41316 2.84615 2.92295 2.84615ZM3.84603 5.15385C3.84603 5.66364 3.43275 6.07692 2.92295 6.07692C2.41316 6.07692 1.99988 5.66364 1.99988 5.15385C1.99988 4.64405 2.41316 4.23077 2.92295 4.23077C3.43275 4.23077 3.84603 4.64405 3.84603 5.15385ZM3.84603 8.38462C3.84603 8.89441 3.43275 9.30769 2.92295 9.30769C2.41316 9.30769 1.99988 8.89441 1.99988 8.38462C1.99988 7.87482 2.41316 7.46154 2.92295 7.46154C3.43275 7.46154 3.84603 7.87482 3.84603 8.38462ZM7.0768 2.84615C7.58659 2.84615 7.99988 2.43287 7.99988 1.92308C7.99988 1.41328 7.58659 1 7.0768 1C6.56701 1 6.15372 1.41328 6.15372 1.92308C6.15372 2.43287 6.56701 2.84615 7.0768 2.84615ZM7.99988 5.15385C7.99988 5.66364 7.58659 6.07692 7.0768 6.07692C6.56701 6.07692 6.15372 5.66364 6.15372 5.15385C6.15372 4.64405 6.56701 4.23077 7.0768 4.23077C7.58659 4.23077 7.99988 4.64405 7.99988 5.15385ZM7.99988 8.38462C7.99988 8.89441 7.58659 9.30769 7.0768 9.30769C6.56701 9.30769 6.15372 8.89441 6.15372 8.38462C6.15372 7.87482 6.56701 7.46154 7.0768 7.46154C7.58659 7.46154 7.99988 7.87482 7.99988 8.38462Z" fill="white" fill-opacity="0.45"/>
</svg>
