<svg width="20" height="21" viewBox="0 0 20 21" fill="none" xmlns="http://www.w3.org/2000/svg">
<path id="Star 4" d="M9.19995 0.692461C9.56802 -0.0592408 10.6416 -0.0531627 11.0011 0.702658L13.2086 5.34324C13.3461 5.63234 13.6137 5.83812 13.9285 5.89676L19.191 6.87719C19.9925 7.02651 20.288 8.02064 19.6983 8.5836L16.0451 12.0711C15.8104 12.2952 15.699 12.6193 15.7463 12.9403L16.6362 18.9778C16.7528 19.7691 15.9395 20.3702 15.2173 20.0267L10.5407 17.8019C10.2689 17.6726 9.95329 17.6726 9.68149 17.8019L4.95945 20.0483C4.24652 20.3874 3.44017 19.8055 3.53748 19.022L4.29585 12.9163C4.33407 12.6087 4.22739 12.3006 4.00706 12.0825L0.464568 8.57502C-0.108112 8.008 0.190808 7.03118 0.98273 6.88175L6.20501 5.89633C6.51488 5.83786 6.77903 5.63665 6.9177 5.35343L9.19995 0.692461Z" fill="#FFB547"/>
</svg>
