<svg width="26" height="19" viewBox="0 0 26 19" fill="none" xmlns="http://www.w3.org/2000/svg">
<g id="Frame 427320501">
<path id="Vector" d="M25.0956 0.0300743L19.0783 0.751634C19.0337 0.757986 18.9917 0.776549 18.9569 0.805275C18.9221 0.834 18.896 0.871772 18.8813 0.914423C18.8666 0.957074 18.864 1.00294 18.8738 1.04698C18.8836 1.09101 18.9053 1.13149 18.9366 1.16395L20.7276 2.89054L13.9115 9.71958L10.832 6.64007C10.7405 6.55113 10.618 6.50136 10.4905 6.50136C10.363 6.50136 10.2405 6.55113 10.149 6.64007L0.433775 16.3553C0.390314 16.4028 0.366211 16.4649 0.366211 16.5293C0.366211 16.5937 0.390314 16.6557 0.433775 16.7032L1.79958 18.069C1.84497 18.1116 1.90486 18.1353 1.96709 18.1353C2.02932 18.1353 2.08921 18.1116 2.13459 18.069L10.4969 9.71958L13.5636 12.7862C13.6565 12.8722 13.7784 12.92 13.905 12.92C14.0316 12.92 14.1536 12.8722 14.2465 12.7862L22.4413 4.59136L24.2323 6.38237C24.2648 6.41368 24.3053 6.43541 24.3493 6.44517C24.3933 6.45493 24.4392 6.45233 24.4819 6.43767C24.5245 6.42301 24.5623 6.39685 24.591 6.36208C24.6197 6.32731 24.6383 6.28529 24.6447 6.24063L25.3662 0.223349C25.3615 0.192703 25.3508 0.163305 25.3345 0.136892C25.3183 0.110478 25.297 0.0875859 25.2717 0.0695678C25.2465 0.0515496 25.2179 0.0387716 25.1877 0.0319882C25.1574 0.0252049 25.1261 0.0245538 25.0956 0.0300743Z" fill="white" fill-opacity="0.5"/>
</g>
</svg>
