<svg width="22" height="24" viewBox="0 0 22 24" fill="none" xmlns="http://www.w3.org/2000/svg">
<g id="Frame 427320391">
<g id="Group 48098484">
<path id="Union" fill-rule="evenodd" clip-rule="evenodd" d="M18.3832 10.4335C18.3832 15.2338 14.4918 19.1251 9.69159 19.1251C4.89136 19.1251 1 15.2338 1 10.4335C1 5.6333 4.89136 1.74194 9.69159 1.74194C14.4918 1.74194 18.3832 5.6333 18.3832 10.4335ZM14.5537 18.8191C13.1245 19.6496 11.4636 20.1251 9.69159 20.1251C4.33907 20.1251 0 15.786 0 10.4335C0 5.08102 4.33907 0.741943 9.69159 0.741943C15.0441 0.741943 19.3832 5.08102 19.3832 10.4335C19.3832 12.9325 18.4374 15.2105 16.8843 16.9292L21.132 21.9653L18.8389 23.8995L14.5537 18.8191Z" fill="white"/>
<path id="Ellipse 1500" d="M10.5659 16.8402C6.65152 16.8402 3.47827 13.667 3.47827 9.75256" stroke="white" stroke-linecap="round"/>
</g>
</g>
</svg>
