<svg width="26" height="19" viewBox="0 0 26 19" fill="none" xmlns="http://www.w3.org/2000/svg">
<g id="Frame 427320500">
<path id="Vector" d="M25.0956 18.1315L19.0783 17.41C19.0337 17.4036 18.9917 17.3851 18.9569 17.3563C18.9221 17.3276 18.896 17.2898 18.8813 17.2472C18.8666 17.2045 18.864 17.1587 18.8738 17.1146C18.8836 17.0706 18.9053 17.0301 18.9366 16.9977L20.7276 15.2711L13.9115 8.44204L10.832 11.5216C10.7405 11.6105 10.618 11.6603 10.4905 11.6603C10.363 11.6603 10.2405 11.6105 10.149 11.5216L0.433775 1.80628C0.390314 1.75877 0.366211 1.69672 0.366211 1.63233C0.366211 1.56795 0.390314 1.50589 0.433775 1.45838L1.79958 0.0925751C1.84497 0.0499973 1.90486 0.0263004 1.96709 0.0263004C2.02932 0.0263004 2.08921 0.0499973 2.13459 0.0925751L10.4969 8.44204L13.5636 5.37542C13.6565 5.28939 13.7784 5.24159 13.905 5.24159C14.0316 5.24159 14.1536 5.28939 14.2465 5.37542L22.4413 13.5703L24.2323 11.7793C24.2648 11.7479 24.3053 11.7262 24.3493 11.7165C24.3933 11.7067 24.4392 11.7093 24.4819 11.724C24.5245 11.7386 24.5623 11.7648 24.591 11.7995C24.6197 11.8343 24.6383 11.8763 24.6447 11.921L25.3662 17.9383C25.3615 17.9689 25.3508 17.9983 25.3345 18.0247C25.3183 18.0511 25.297 18.074 25.2717 18.0921C25.2465 18.1101 25.2179 18.1228 25.1877 18.1296C25.1574 18.1364 25.1261 18.1371 25.0956 18.1315Z" fill="white" fill-opacity="0.5"/>
</g>
</svg>
