<svg width="20" height="21" viewBox="0 0 20 21" fill="none" xmlns="http://www.w3.org/2000/svg">
<path d="M9.19995 0.630571C9.56802 -0.12113 10.6416 -0.115052 11.0011 0.640768L13.2086 5.28135C13.3461 5.57045 13.6137 5.77623 13.9285 5.83487L19.191 6.8153C19.9925 6.96462 20.288 7.95875 19.6983 8.52171L16.0451 12.0093C15.8104 12.2333 15.699 12.5574 15.7463 12.8784L16.6362 18.9159C16.7528 19.7072 15.9395 20.3084 15.2173 19.9648L10.5407 17.74C10.2689 17.6107 9.95329 17.6107 9.68149 17.74L4.95945 19.9864C4.24652 20.3255 3.44017 19.7436 3.53748 18.9601L4.29585 12.8545C4.33407 12.5468 4.22739 12.2387 4.00706 12.0206L0.464569 8.51313C-0.108112 7.94611 0.190808 6.96929 0.98273 6.81986L6.20501 5.83444C6.51488 5.77597 6.77903 5.57476 6.9177 5.29154L9.19995 0.630571Z" fill="white" fill-opacity="0.5"/>
</svg>
