<svg xmlns="http://www.w3.org/2000/svg" width="20" height="11" viewBox="0 0 20 11" fill="none">
  <path d="M19.2583 5.66239L18.0739 4.2507C18.6957 3.50198 19.214 2.6543 19.605 1.71833C19.7449 1.38322 19.587 0.998442 19.2519 0.858483C18.9155 0.718101 18.532 0.87689 18.392 1.21158C17.004 4.53461 13.773 6.59885 9.95996 6.59885C6.11564 6.59885 2.88338 4.5299 1.52405 1.1996C1.38709 0.863196 1.00402 0.701407 0.667197 0.839232C0.330793 0.97619 0.169427 1.3601 0.306829 1.6961C0.706376 2.67503 1.25956 3.56178 1.9312 4.34192L0.823005 5.66239C0.589747 5.94018 0.626116 6.3549 0.904322 6.5886C1.02716 6.69175 1.17739 6.74225 1.32633 6.74225C1.5138 6.74225 1.70042 6.66223 1.83053 6.50728L2.8573 5.28383C3.5695 5.91592 4.37574 6.44484 5.24983 6.86104L4.62237 8.5848C4.49782 8.92591 4.67372 9.30297 5.01529 9.4271C5.08933 9.45407 5.16509 9.46692 5.23998 9.46692C5.50834 9.46692 5.76043 9.30128 5.8576 9.03421L6.47081 7.34966C7.36823 7.64739 8.31785 7.83356 9.30258 7.89054V9.88593C9.30258 10.2489 9.59703 10.5433 9.95998 10.5433C10.3229 10.5433 10.6174 10.2489 10.6174 9.88593V7.89126C11.6617 7.83297 12.6613 7.63545 13.5979 7.31384L14.2241 9.03421C14.3213 9.30128 14.5734 9.46692 14.8418 9.46692C14.9167 9.46692 14.9924 9.45407 15.0665 9.4271C15.408 9.303 15.5839 8.92591 15.4594 8.5848L14.8126 6.80795C15.673 6.38442 16.4617 5.84736 17.1595 5.20653L18.2508 6.50728C18.3809 6.66223 18.5671 6.74225 18.755 6.74225C18.9039 6.74225 19.0537 6.69175 19.177 6.5886C19.4552 6.3549 19.4916 5.94058 19.2583 5.66239Z" fill="#7C67FF"/>
</svg>