<svg xmlns="http://www.w3.org/2000/svg" width="20" height="11" viewBox="0 0 20 11" fill="none">
  <path fill-rule="evenodd" clip-rule="evenodd" d="M0 5.69428C3.48173 2.31777 6.13445 0.227539 9.78199 0.227539C14.0927 0.227539 17.2428 3.12169 19.3982 5.69428C19.3224 5.76774 19.2454 5.8426 19.1672 5.91866C17.0199 8.00659 13.9412 11.0002 9.78199 11.0002C5.71095 11.0002 3.42251 8.87258 0.796705 6.43126C0.535181 6.18812 0.270311 5.94185 0 5.69428ZM5.80287 5.6943C5.80287 7.78452 7.62663 9.39239 9.78199 9.39239C11.9373 9.39239 13.5953 7.78454 13.5953 5.6943C13.5953 3.44329 11.9373 1.83542 9.78199 1.83542C7.62663 1.83542 5.80287 3.44329 5.80287 5.6943ZM10.1137 3.44267C9.78209 3.60345 9.78209 3.92502 9.78209 4.2466V4.24662C9.78209 5.05054 10.2795 5.69369 11.1085 5.69369C11.4401 5.69369 11.7717 5.53289 11.9375 5.3721V5.69369C11.9375 6.81919 10.9426 7.78392 9.78209 7.78392C8.45572 7.78392 7.46094 6.81917 7.46094 5.69369C7.46094 4.40739 8.45572 3.44267 9.78209 3.44267H10.1137Z" fill="#7C67FF"/>
</svg>