<svg xmlns="http://www.w3.org/2000/svg" width="15" height="11" viewBox="0 0 15 11" fill="none">
  <path d="M0.763672 4.77694H14.7599V3.1981H0.763672V1.64957C0.763672 1.03743 1.29758 0.537109 1.95049 0.537109H13.5749C14.2279 0.537109 14.7637 1.03773 14.7637 1.64926V9.42495C14.7637 10.0371 14.2298 10.5371 13.5769 10.5371H1.95049C1.29758 10.5371 0.763672 10.0371 0.763672 9.42495V4.77663V4.77694ZM4.99963 7.77945C5.08133 7.7016 5.12723 7.59603 5.12723 7.48596C5.12723 7.37588 5.08133 7.27032 4.99963 7.19246L3.42304 5.69211L1.84644 7.19216C1.78543 7.25011 1.74383 7.32399 1.72688 7.40446C1.70993 7.48492 1.71841 7.56837 1.75123 7.64425C1.78405 7.72013 1.83975 7.78505 1.91129 7.83079C1.98283 7.87654 2.067 7.90107 2.15317 7.90127C2.26581 7.90127 2.37335 7.86097 2.45863 7.77945L2.97535 7.28125V9.21646C2.97535 9.44526 3.18249 9.63163 3.42304 9.63163C3.66326 9.63163 3.8704 9.44526 3.8704 9.21646V7.28125L4.38713 7.77945C4.42719 7.81801 4.47488 7.84863 4.52745 7.86952C4.58002 7.89042 4.63642 7.90118 4.69338 7.90118C4.75034 7.90118 4.80673 7.89042 4.8593 7.86952C4.91187 7.84863 4.95956 7.81801 4.99963 7.77945Z" fill="white"/>
</svg>