<svg xmlns="http://www.w3.org/2000/svg" width="24" height="24" viewBox="0 0 24 24" fill="none">
  <g clip-path="url(#clip0_1194_1654)">
    <path d="M24 0H0V24H24V0Z" fill="black"/>
    <path fill-rule="evenodd" clip-rule="evenodd" d="M9.45483 5.24414H5.54523C5.37915 5.24414 5.24451 5.37878 5.24451 5.54486V9.45446C5.24451 9.62056 5.37915 9.7552 5.54523 9.7552H9.45483C9.62093 9.7552 9.75557 9.62056 9.75557 9.45446V5.54486C9.75557 5.37878 9.62093 5.24414 9.45483 5.24414ZM13.9679 9.7552H10.0583C9.89218 9.7552 9.75751 9.88987 9.75751 10.0559V13.9655C9.75751 14.1317 9.89218 14.2663 10.0583 14.2663H13.9679C14.134 14.2663 14.2686 14.1317 14.2686 13.9655V10.0559C14.2686 9.88987 14.134 9.7552 13.9679 9.7552ZM14.5674 5.24414H18.477C18.6431 5.24414 18.7778 5.37878 18.7778 5.54486V9.45446C18.7778 9.62056 18.6431 9.7552 18.477 9.7552H14.5674C14.4013 9.7552 14.2667 9.62056 14.2667 9.45446V5.54486C14.2667 5.37878 14.4013 5.24414 14.5674 5.24414ZM9.45485 14.2663H5.54523C5.37915 14.2663 5.24451 14.401 5.24451 14.5671V18.4767C5.24451 18.6427 5.37915 18.7774 5.54523 18.7774H9.45485C9.62093 18.7774 9.75557 18.6427 9.75557 18.4767V14.5671C9.75557 14.401 9.62093 14.2663 9.45485 14.2663ZM14.5674 14.2663H18.477C18.6431 14.2663 18.7778 14.401 18.7778 14.5671V18.4767C18.7778 18.6427 18.6431 18.7774 18.477 18.7774H14.5674C14.4013 18.7774 14.2667 18.6427 14.2667 18.4767V14.5671C14.2667 14.401 14.4013 14.2663 14.5674 14.2663Z" fill="white"/>
  </g>
  <defs>
    <clipPath id="clip0_1194_1654">
      <rect width="24" height="24" rx="4" fill="white"/>
    </clipPath>
  </defs>
</svg>