<svg xmlns="http://www.w3.org/2000/svg" width="14" height="12" viewBox="0 0 14 12" fill="none">
  <path d="M13.314 7.92514V9.844C13.3124 10.4163 13.0792 10.9647 12.6655 11.3689C12.2519 11.773 11.6914 12 11.1071 12H2.21445C1.63017 12 1.06973 11.773 0.65604 11.3689C0.242345 10.9647 0.00915793 10.4163 0.00761344 9.844V7.50743C0.00713365 7.48809 0.0106685 7.46886 0.0180036 7.4509C0.0253388 7.43294 0.0363215 7.41662 0.0502856 7.40294C0.0642499 7.38926 0.0809046 7.37851 0.0992402 7.37132C0.117576 7.36414 0.13721 7.36067 0.156953 7.36114H0.84298C0.862722 7.36067 0.882357 7.36414 0.900692 7.37132C0.919028 7.37851 0.935683 7.38926 0.949647 7.40294C0.963611 7.41662 0.974594 7.43294 0.981929 7.4509C0.989264 7.46886 0.992799 7.48809 0.992319 7.50743V9.50914C0.992319 10.5326 1.50159 11.0303 2.5493 11.0303H10.7484C11.7961 11.0303 12.3059 10.5326 12.3059 9.50914V8.00343H9.65575C9.36714 8.00358 9.09026 7.89158 8.88586 7.692C8.68145 7.49242 8.56622 7.22156 8.56545 6.93886V5.38857C8.56545 4.80114 9.05431 4.32343 9.65575 4.32343H12.3059V2.49086C12.3059 1.46686 11.7961 0.969143 10.7484 0.969143H2.54171C1.49342 0.969143 0.984152 1.46686 0.984152 2.49086V4.49257C0.984552 4.51186 0.980958 4.53103 0.973587 4.54893C0.966216 4.56682 0.955221 4.58307 0.941265 4.59668C0.927309 4.6103 0.910681 4.62101 0.892386 4.62816C0.87409 4.63531 0.854505 4.63875 0.834813 4.63829H0.148786C0.129142 4.63867 0.10962 4.63517 0.091393 4.62799C0.0731657 4.6208 0.0566084 4.61008 0.0427153 4.59647C0.0288221 4.58286 0.0178795 4.56665 0.0105443 4.54879C0.0032092 4.53094 -0.000367197 4.51181 2.97719e-05 4.49257V2.15543C0.00157451 1.58315 0.23478 1.03483 0.648492 0.630761C1.0622 0.226686 1.62264 -0.00015324 2.20687 7.80733e-08H11.099C11.6832 -0.000153633 12.2437 0.226668 12.6576 0.630726C13.0714 1.03478 13.3047 1.5831 13.3064 2.15543V4.40343C13.7112 4.57029 13.9831 4.95429 14 5.38457V6.93886C14 7.36914 13.7247 7.76457 13.314 7.92514ZM13.167 5.66914C13.167 5.35429 12.901 5.09829 12.5749 5.09829H9.99059C9.66391 5.09829 9.3979 5.35429 9.3979 5.66914V6.588C9.3979 6.90286 9.66391 7.15886 9.99059 7.15886H12.5749C12.901 7.15886 13.167 6.89943 13.167 6.58057V5.66914ZM10.3179 6.73371C10.1446 6.73371 9.97192 6.66686 9.85759 6.55429C9.79662 6.49746 9.74819 6.42899 9.71528 6.35312C9.68237 6.27725 9.66569 6.19558 9.66625 6.11314C9.66625 5.92914 9.73158 5.77657 9.8605 5.66057C9.97367 5.55029 10.1417 5.484 10.3097 5.484C10.4754 5.484 10.6445 5.55143 10.7746 5.668C10.8965 5.77829 10.9695 5.94457 10.9695 6.11314C10.9695 6.26971 10.896 6.43886 10.7775 6.55486C10.6531 6.66955 10.4887 6.73351 10.3179 6.73371ZM0.039698 6.48629C0.0262946 6.46994 0.0165614 6.451 0.0111334 6.43072C0.00570547 6.41044 0.00470478 6.38926 0.00819676 6.36857L0.00761344 5.59886C0.0072137 5.57957 0.0108077 5.56039 0.0181786 5.5425C0.0255496 5.52461 0.0365448 5.50836 0.0505007 5.49475C0.0644566 5.48113 0.081084 5.47042 0.0993797 5.46327C0.117675 5.45612 0.13726 5.45268 0.156953 5.45314H2.94365L2.80656 5.31486C2.77793 5.2866 2.76108 5.24891 2.75931 5.20914V4.04057C2.75931 3.98343 2.79139 3.932 2.84331 3.90629L2.86956 3.89486H2.90864C2.9699 3.89486 3.0049 3.92914 3.01832 3.94229L4.98831 5.88971C5.01622 5.91849 5.03174 5.9567 5.03163 5.9964C5.03152 6.0361 5.0158 6.07423 4.98773 6.10286L3.01832 8.04971C2.98896 8.0782 2.94991 8.09508 2.90864 8.09714L2.86431 8.09543L2.84389 8.08571C2.81834 8.07337 2.79686 8.05423 2.7819 8.03048C2.76694 8.00673 2.75911 7.97933 2.75931 7.95143V6.78286C2.75931 6.72343 2.79372 6.68971 2.80656 6.67714L2.94365 6.53886H0.156953C0.134646 6.53919 0.112545 6.53465 0.0922602 6.52555C0.0719753 6.51646 0.0540181 6.50304 0.039698 6.48629Z" fill="white"/>
</svg>