<svg width="25" height="25" viewBox="0 0 25 25" fill="none" xmlns="http://www.w3.org/2000/svg">
<circle cx="12.6631" cy="12.9604" r="12" fill="#AEF403" fill-opacity="0.3"/>
<path fill-rule="evenodd" clip-rule="evenodd" d="M6.05729 10.7702H10.2781C10.3162 10.7702 10.3512 10.7593 10.3807 10.7398C10.359 10.7718 10.3467 10.8104 10.3467 10.8507V15.0715C10.3467 15.112 10.3581 15.1482 10.3775 15.1781C10.3479 15.1609 10.3137 15.1514 10.2781 15.1514H6.05729C5.94259 15.1514 5.8623 15.2431 5.8623 15.3464V19.5672C5.8623 19.6819 5.95406 19.7622 6.05729 19.7622H10.2781C10.3814 19.7622 10.4617 19.6819 10.4731 19.5672V15.3464C10.4731 15.3059 10.4617 15.2697 10.4424 15.2398C10.4719 15.257 10.5061 15.2665 10.5417 15.2665H14.774C14.8772 15.2665 14.9575 15.1862 14.9575 15.0715V10.8507C14.9575 10.736 14.8658 10.6557 14.7625 10.6557H10.5417C10.5005 10.6557 10.4637 10.6675 10.4335 10.6875C10.4548 10.6566 10.4688 10.6183 10.4731 10.5753V6.35441C10.4731 6.23971 10.3814 6.15942 10.2781 6.15942H6.05729C5.94259 6.15942 5.8623 6.25118 5.8623 6.35441V10.5753C5.8623 10.69 5.95406 10.7702 6.05729 10.7702ZM19.2701 10.7702H15.0492C14.946 10.7702 14.8542 10.69 14.8542 10.5753V6.35441C14.8542 6.25118 14.9345 6.15942 15.0492 6.15942H19.2701C19.3733 6.15942 19.4651 6.23971 19.4651 6.35441V10.5753C19.4651 10.69 19.3733 10.7702 19.2701 10.7702ZM19.2701 19.7622H15.0492C14.946 19.7622 14.8542 19.6819 14.8542 19.5672V15.3464C14.8542 15.2431 14.9345 15.1514 15.0492 15.1514H19.2701C19.3733 15.1514 19.4651 15.2317 19.4651 15.3464V19.5672C19.4651 19.6819 19.3733 19.7622 19.2701 19.7622ZM9.78482 14.9335H6.32097C6.19481 14.9335 6.09158 14.8303 6.09158 14.7041V11.2288C6.09158 11.1027 6.19481 10.9994 6.32097 10.9994H9.78482C9.91099 10.9994 10.0142 11.1027 10.0142 11.2288V14.6927C10.0142 14.8303 9.91099 14.9335 9.78482 14.9335ZM18.995 14.9335H15.5312C15.405 14.9335 15.3018 14.8303 15.3018 14.7041V11.2288C15.3018 11.1027 15.405 10.9994 15.5312 10.9994H18.995C19.1212 10.9994 19.2244 11.1027 19.2244 11.2288V14.6927C19.2244 14.8303 19.1212 14.9335 18.995 14.9335Z" fill="url(#paint0_linear_550_11315)"/>
<defs>
<linearGradient id="paint0_linear_550_11315" x1="12.6637" y1="6.15942" x2="12.6637" y2="19.7622" gradientUnits="userSpaceOnUse">
<stop stop-color="#FDDF27"/>
<stop offset="1" stop-color="#AEF403"/>
</linearGradient>
</defs>
</svg>
