<svg width="300" height="300" viewBox="0 0 300 300" fill="none" xmlns="http://www.w3.org/2000/svg">
<g clip-path="url(#clip0_41046_50687)">
<path fill-rule="evenodd" clip-rule="evenodd" d="M150 300C232.843 300 300 232.843 300 150C300 67.1573 232.843 0 150 0C67.1573 0 0 67.1573 0 150C0 232.843 67.1573 300 150 300ZM165.471 246.06H239.119C239.511 245.809 239.915 245.572 240.32 245.335L240.321 245.334C241.242 244.794 242.164 244.254 242.943 243.55C245.05 241.67 246 239.253 246 236.354C245.984 214.019 245.976 191.684 245.976 169.346C245.98 153.147 233.256 138.414 217.185 136.061C215.327 135.79 213.451 135.654 211.573 135.653H88.7075V88.7973H135.47V111.44H170.182V106.798C170.157 104.436 170.183 102.068 170.209 99.7003C170.267 94.4506 170.324 89.1999 169.832 84.0029C168.257 67.3606 153.096 54.0999 136.36 54.0999C130.019 54.0999 123.678 54.1104 117.336 54.1208C100.28 54.1491 83.2227 54.1773 66.1682 54.0014C60.4189 53.9424 56.3777 55.68 54.02 60.9617V140.989C54.2173 141.634 54.4094 142.281 54.6015 142.928C55.0273 144.362 55.453 145.796 55.9347 147.21C60.5863 160.826 73.7338 170.252 88.0577 170.252H211.352V211.348H170.497V188.642H136.001C136.001 189.68 135.996 190.707 135.991 191.728V191.731C135.981 193.753 135.972 195.748 136.001 197.743C136.028 199.664 135.998 201.594 135.968 203.525C135.898 207.995 135.828 212.467 136.464 216.837C138.649 231.904 149.429 242.62 164.393 245.612C164.766 245.725 165.128 245.875 165.471 246.06ZM88.4759 188.614H54.0197L54 239.171C55.3494 242.253 57.8097 244.713 60.8912 246.063H111.478V211.415H88.4759V188.614ZM245.975 111.507H211.484V88.6669H188.172V54.2107C188.418 54.1986 188.663 54.1838 188.906 54.169C189.457 54.1356 190.004 54.1024 190.55 54.1024H236.165C242.037 54.1024 245.975 58.0403 245.975 63.947V111.507Z" fill="white"/>
</g>
<defs>
<clipPath id="clip0_41046_50687">
<rect width="300" height="300" fill="white"/>
</clipPath>
</defs>
</svg>
