<svg width="300" height="300" viewBox="0 0 300 300" fill="none" xmlns="http://www.w3.org/2000/svg">
<g clip-path="url(#clip0_41046_50685)">
<path fill-rule="evenodd" clip-rule="evenodd" d="M150 300C232.843 300 300 232.843 300 150C300 67.1573 232.843 0 150 0C67.1573 0 0 67.1573 0 150C0 232.843 67.1573 300 150 300ZM242.39 210.932C244.958 205.027 245.936 198.767 246.853 192.475V185.917C246.469 184.182 246.138 182.427 245.808 180.672C245.08 176.807 244.352 172.941 243.052 169.281C238.404 156.208 229.808 146.192 217.65 139.402C210.04 135.148 201.896 132.326 193.111 132.287C170.997 132.188 148.883 132.213 126.77 132.238C122.066 132.243 117.363 132.248 112.66 132.252C109.18 132.256 105.912 131.487 102.792 130.009C94.5013 126.088 89.5633 116.56 90.9824 108.173C92.97 96.4177 104.625 88.4442 115.966 91.0234C124.59 92.9839 131.577 100.691 132.447 109.894C132.579 111.255 133.015 111.901 134.396 111.901C145.134 111.889 155.877 111.889 166.615 111.901C168.08 111.905 168.804 111.181 168.68 109.762C168.619 109.051 168.567 108.338 168.515 107.624V107.621C168.352 105.391 168.189 103.159 167.756 100.981C164.132 82.7753 154.14 69.2915 137.714 60.5214C131.136 57.0064 124.017 55.2934 116.809 54.2454C112.95 53.6849 108.877 54.1895 104.922 54.6795L104.92 54.6798C104.62 54.717 104.32 54.7541 104.022 54.7907C97.9428 55.537 92.1 57.2229 86.5587 59.9607C75.2945 65.5251 66.8028 73.8583 60.8478 84.8983C57.53 91.0389 55.7744 97.6783 54.6762 104.453C54.0266 108.463 53.7018 112.736 54.363 116.7C55.5733 123.946 57.3057 131.111 60.8942 137.728C66.4509 147.971 74.1537 155.979 84.4126 161.474C93.4186 166.3 102.997 168.346 113.287 168.234C129.116 168.063 144.946 168.09 160.777 168.116H160.78C169.772 168.131 178.764 168.146 187.755 168.125C194.723 168.11 200.539 170.48 205.222 175.646C208.71 179.494 210.45 184.184 210.477 189.192C210.5 193.422 209.058 197.502 206.467 201.052C200.249 209.571 188.61 212.815 178.927 206.806C172.736 202.962 169.387 197.282 168.63 190.062C168.514 188.96 168.042 188.492 166.909 188.496C156.039 188.523 145.173 188.527 134.303 188.508C132.981 188.504 132.377 189.034 132.482 190.344C132.545 191.141 132.594 191.94 132.642 192.739C132.753 194.566 132.864 196.393 133.155 198.19C135.204 210.924 140.954 221.755 150.312 230.618C159.74 239.551 171.112 244.527 183.888 245.977C191.92 246.89 199.893 245.877 207.627 243.205C223.988 237.555 235.503 226.771 242.39 210.932ZM228.687 111.516C227.25 111.516 225.813 111.514 224.376 111.512C220.605 111.505 216.834 111.499 213.065 111.536C211.557 111.551 210.9 111.006 210.706 109.455C209.442 99.2621 202.74 92.2128 192.644 90.3335C192.488 90.3049 192.333 90.274 192.177 90.2431C191.764 90.1611 191.35 90.0789 190.935 90.0396C189.728 89.9275 189.307 89.2469 189.311 88.0945C189.322 80.1406 189.321 72.1844 189.319 64.2294C189.319 61.5762 189.318 58.9228 189.318 56.2701C189.318 54.9785 189.895 54.4255 191.24 54.5454C199.809 55.2879 208.092 56.9584 215.811 61.0495C226.298 66.6101 234.286 74.5682 239.886 85.001C244.008 92.6807 245.717 100.979 246.382 109.564C246.483 110.863 246.023 111.563 244.503 111.539C240.646 111.486 236.79 111.494 232.933 111.502C231.519 111.505 230.105 111.509 228.691 111.509C228.689 111.51 228.688 111.513 228.688 111.513C228.687 111.515 228.687 111.516 228.687 111.516ZM76.798 188.816C75.3598 188.814 73.9215 188.813 72.4829 188.813C72.4829 188.824 72.4829 188.836 72.479 188.851C71.0208 188.851 69.5626 188.853 68.1043 188.856C64.3539 188.861 60.6034 188.866 56.853 188.836C54.8422 188.82 54.3356 189.331 54.6604 191.365C54.7557 191.954 54.8419 192.546 54.9281 193.137C55.1184 194.442 55.3088 195.748 55.5962 197.034C55.8438 198.142 56.0679 199.26 56.2921 200.378C56.9013 203.418 57.5115 206.462 58.5969 209.323C62.8892 220.637 70.1434 229.724 80.3211 236.375C85.5143 239.774 91.0169 242.555 97.1537 243.78C99.6013 244.27 102.073 244.635 104.545 245.001C106.06 245.225 107.576 245.45 109.087 245.702C111.438 246.093 111.805 245.822 111.805 243.429C111.805 240.851 111.802 238.273 111.799 235.695C111.79 228.175 111.782 220.654 111.848 213.135C111.863 211.214 111.326 210.432 109.35 210.15C102.266 209.145 96.5427 205.8 93.1862 199.334C92.0725 197.193 91.4289 194.799 90.79 192.421C90.6281 191.819 90.4665 191.218 90.2977 190.622C89.9728 189.474 89.6287 188.786 88.3024 188.797C84.4665 188.825 80.6328 188.821 76.798 188.816Z" fill="white"/>
</g>
<defs>
<clipPath id="clip0_41046_50685">
<rect width="300" height="300" fill="white"/>
</clipPath>
</defs>
</svg>
