<svg width="300" height="300" viewBox="0 0 300 300" fill="none" xmlns="http://www.w3.org/2000/svg">
<g clip-path="url(#clip0_41046_50674)">
<mask id="mask0_41046_50674" style="mask-type:luminance" maskUnits="userSpaceOnUse" x="0" y="0" width="300" height="300">
<path d="M300 0H0V300H300V0Z" fill="white"/>
</mask>
<g mask="url(#mask0_41046_50674)">
<path d="M150 300C232.843 300 300 232.843 300 150C300 67.1573 232.843 0 150 0C67.1573 0 0 67.1573 0 150C0 232.843 67.1573 300 150 300Z" fill="#005100"/>
<path d="M109.32 84.9902L95.1001 85.0202L190.53 214.98L204.75 214.95L109.32 84.9902Z" fill="white"/>
<path d="M71.1001 85.0495L85.2901 85.0195L132.36 150.57L123.24 157.53L76.2386 92.033L76.2301 92.0395L71.1001 85.0495Z" fill="#A3A2A3"/>
<path d="M214.261 214.95H214.26H214.23L214.249 214.935L154.68 132.78L163.8 125.82L223.311 207.936L223.32 207.93L228.45 214.92L214.261 214.95Z" fill="#A3A2A3"/>
<path d="M206.763 112.317L206.788 112.336L129.479 214.929L71.5 214.501L93.2045 187.595L170.496 85.0248L170.49 85.0202L170.5 85.0203L170.514 85.002L170.539 85.0207L228.69 85.6502L206.763 112.317Z" fill="white"/>
<path fill-rule="evenodd" clip-rule="evenodd" d="M99.5819 41.1254C115.522 34.2795 132.702 30.7953 150.05 30.8907L150.06 30.8908C218.635 30.8908 274.18 84.3006 274.18 150.001C274.18 185.177 258.24 216.83 232.914 238.649L235.158 241.677C261.388 219.186 277.94 186.462 277.94 150.001C277.94 82.0826 220.568 27.1334 150.065 27.1308C132.202 27.0332 114.512 30.6212 98.0981 37.6705C89.0378 41.5618 80.4742 46.4616 72.5629 52.261L74.8019 55.2817C82.4798 49.6553 90.7899 44.9014 99.5819 41.1254ZM67.0632 61.433L64.8185 58.4045C61.2704 61.4461 57.8819 64.6831 54.6697 68.1038C33.8422 90.2911 22.2278 119.567 22.1802 149.998V150.001C22.1802 217.952 79.6158 272.871 150.06 272.871C179.089 272.871 205.908 263.54 227.41 247.816L225.172 244.797C204.315 260.048 178.283 269.111 150.06 269.111C81.5451 269.111 25.941 215.731 25.9402 150.002C25.9867 120.526 37.2365 92.1692 57.4106 70.6777C60.4688 67.4212 63.6914 64.336 67.0632 61.433Z" fill="#A3A2A3"/>
</g>
</g>
<defs>
<clipPath id="clip0_41046_50674">
<rect width="300" height="300" fill="white"/>
</clipPath>
</defs>
</svg>
