<svg xmlns="http://www.w3.org/2000/svg" width="15" height="13" viewBox="0 0 15 13" fill="none">
  <path fill-rule="evenodd" clip-rule="evenodd" d="M4.25926 11.4897C5.21852 12.1489 6.34624 12.5006 7.49978 12.5002C9.04556 12.4986 10.5276 11.8661 11.6206 10.7415C12.7136 9.61695 13.3284 8.09219 13.33 6.50181C13.3302 5.92366 13.2491 5.35181 13.0919 4.80323C14.0051 4.21348 14.7447 3.63583 14.4336 2.98889C14.1395 2.37281 12.9448 2.40358 11.9879 2.67098C11.3842 1.92168 10.6102 1.33222 9.73068 0.957269C8.665 0.502949 7.49231 0.383997 6.36091 0.615459C5.22952 0.84692 4.19026 1.4184 3.37459 2.25761C2.55891 3.09681 2.00346 4.16606 1.77849 5.33009C1.59344 6.28752 1.63882 7.27371 1.90648 8.20373C0.999931 8.79379 0.268417 9.36915 0.578087 10.0132C0.71509 10.3013 0.969306 10.4125 1.29659 10.4125C1.70378 10.4125 2.22402 10.2419 2.78321 10.0311C3.18572 10.6001 3.68452 11.0948 4.25926 11.4897ZM3.97385 9.55806C4.0592 9.66242 4.14911 9.76322 4.24341 9.86015C4.88886 10.5236 5.711 10.9752 6.60589 11.158C7.50078 11.3408 8.42826 11.2465 9.27108 10.8871C10.1139 10.5276 10.8342 9.9192 11.341 9.13865C11.8478 8.3581 12.1183 7.44049 12.1183 6.50181C12.118 6.15593 12.081 5.81396 12.0096 5.48142C10.913 6.14464 9.53858 6.89776 8.0554 7.64982C6.56993 8.40303 5.15134 9.06522 3.97385 9.55806ZM3.31052 8.48093C4.4933 7.9921 5.99351 7.29863 7.51804 6.5253C9.04022 5.75317 10.4885 4.95608 11.5842 4.28826C11.37 3.87072 11.0946 3.48466 10.764 3.14485C9.89794 2.25473 8.7239 1.75475 7.49978 1.75475C6.58742 1.75568 5.69581 2.03488 4.93765 2.55706C4.17949 3.07923 3.58882 3.82095 3.2403 4.68844C2.89179 5.55594 2.80107 6.51026 2.97961 7.43079C3.05021 7.79479 3.16166 8.14703 3.31052 8.48093ZM12.5614 3.52294C12.541 3.48626 12.5202 3.44978 12.4991 3.41351C12.7649 3.30998 13.0473 3.25889 13.3315 3.26297C13.197 3.5255 13.0003 3.74889 12.7598 3.91255C12.7519 3.89564 12.744 3.87877 12.736 3.86193C12.692 3.74163 12.6333 3.62772 12.5614 3.52294ZM2.11556 8.86986L1.75783 9.27707H2.28453L2.11556 8.86986Z" fill="white" fill-opacity="0.5"/>
</svg>