<svg width="21" height="21" viewBox="0 0 21 21" fill="none" xmlns="http://www.w3.org/2000/svg">
<path d="M10.5059 20.5002C16.0287 20.5002 20.5059 16.0231 20.5059 10.5002C20.5059 4.9774 16.0287 0.500244 10.5059 0.500244C4.98301 0.500244 0.505859 4.9774 0.505859 10.5002C0.505859 16.0231 4.98301 20.5002 10.5059 20.5002Z" fill="#110F1C"/>
<path d="M10.9658 4.91101V7.60202L13.3104 6.2584L10.9658 4.91101Z" fill="url(#paint0_linear_494_5242)"/>
<path opacity="0.9" d="M13.3105 6.25842V8.94943L15.6551 7.60204L13.3105 6.25842Z" fill="url(#paint1_linear_494_5242)"/>
<path opacity="0.8" d="M10.9658 7.60205V10.2931L13.3104 8.94944L10.9658 7.60205Z" fill="url(#paint2_linear_494_5242)"/>
<path opacity="0.8" d="M13.3105 8.94946V11.6405L15.6551 10.2931L13.3105 8.94946Z" fill="url(#paint3_linear_494_5242)"/>
<path opacity="0.8" d="M10.9658 10.2931V12.9841L13.3104 11.6405L10.9658 10.2931Z" fill="url(#paint4_linear_494_5242)"/>
<path d="M13.3105 11.6404V14.3314L15.6551 12.984L13.3105 11.6404Z" fill="url(#paint5_linear_494_5242)"/>
<path opacity="0.4" d="M4.90576 7.51147V10.2025L7.25032 8.85509L4.90576 7.51147Z" fill="url(#paint6_linear_494_5242)"/>
<path opacity="0.2" d="M7.86377 8.5116V11.2026L10.2045 9.85899L7.86377 8.5116Z" fill="url(#paint7_linear_494_5242)"/>
<path opacity="0.3" d="M6.125 10.2137V12.9048L8.46956 11.5574L6.125 10.2137Z" fill="url(#paint8_linear_494_5242)"/>
<path opacity="0.9" d="M7.6709 12.2443V14.9353L10.0117 13.5879L7.6709 12.2443Z" fill="url(#paint9_linear_494_5242)"/>
<path opacity="0.7" d="M10.9468 13.403V16.094L13.2875 14.7466L10.9468 13.403Z" fill="url(#paint10_linear_494_5242)"/>
<path opacity="0.9" d="M8.25391 7.18311V9.87411L10.5947 8.5305L8.25391 7.18311Z" fill="url(#paint11_linear_494_5242)"/>
<path opacity="0.8" d="M10.9657 4.91101V7.60202L8.62109 6.2584L10.9657 4.91101Z" fill="url(#paint12_linear_494_5242)"/>
<path opacity="0.6" d="M8.25374 6.05457V8.74557L5.90918 7.39818L8.25374 6.05457Z" fill="url(#paint13_linear_494_5242)"/>
<path opacity="0.6" d="M10.5985 7.38684V10.0778L8.25391 8.73046L10.5985 7.38684Z" fill="url(#paint14_linear_494_5242)"/>
<path opacity="0.95" d="M7.85237 8.5116V11.2026L5.50781 9.85899L7.85237 8.5116Z" fill="url(#paint15_linear_494_5242)"/>
<path opacity="0.6" d="M10.9658 10.2931V12.9841L8.625 11.6405L10.9658 10.2931Z" fill="url(#paint16_linear_494_5242)"/>
<path opacity="0.55" d="M6.12532 10.9196V13.6106L3.78076 12.2632L6.12532 10.9196Z" fill="url(#paint17_linear_494_5242)"/>
<path d="M15.6551 7.60205V10.2931L13.3105 8.94944L15.6551 7.60205Z" fill="url(#paint18_linear_494_5242)"/>
<path opacity="0.95" d="M13.3104 8.94946V11.6405L10.9658 10.2931L13.3104 8.94946Z" fill="url(#paint19_linear_494_5242)"/>
<path opacity="0.9" d="M15.6551 10.2931V12.9841L13.3105 11.6405L15.6551 10.2931Z" fill="url(#paint20_linear_494_5242)"/>
<path opacity="0.7" d="M13.3104 11.6404V14.3314L10.9658 12.984L13.3104 11.6404Z" fill="url(#paint21_linear_494_5242)"/>
<path opacity="0.4" d="M10.4471 12.7614V15.4524L8.10254 14.1087L10.4471 12.7614Z" fill="url(#paint22_linear_494_5242)"/>
<path d="M13.3104 6.25842V8.94943L10.9658 7.60204L13.3104 6.25842Z" fill="url(#paint23_linear_494_5242)"/>
<defs>
<linearGradient id="paint0_linear_494_5242" x1="-1031.47" y1="-273.856" x2="4264.64" y2="142.836" gradientUnits="userSpaceOnUse">
<stop stop-color="#42FFB1"/>
<stop offset="1" stop-color="#00D3DC"/>
</linearGradient>
<linearGradient id="paint1_linear_494_5242" x1="-1029.13" y1="-272.509" x2="4266.99" y2="144.184" gradientUnits="userSpaceOnUse">
<stop stop-color="#42FFB1"/>
<stop offset="1" stop-color="#00D3DC"/>
</linearGradient>
<linearGradient id="paint2_linear_494_5242" x1="-1031.47" y1="-271.165" x2="4264.64" y2="145.527" gradientUnits="userSpaceOnUse">
<stop stop-color="#42FFB1"/>
<stop offset="1" stop-color="#00D3DC"/>
</linearGradient>
<linearGradient id="paint3_linear_494_5242" x1="-1029.13" y1="-269.818" x2="4266.99" y2="146.875" gradientUnits="userSpaceOnUse">
<stop stop-color="#42FFB1"/>
<stop offset="1" stop-color="#00D3DC"/>
</linearGradient>
<linearGradient id="paint4_linear_494_5242" x1="-1031.47" y1="-268.474" x2="4264.64" y2="148.218" gradientUnits="userSpaceOnUse">
<stop stop-color="#42FFB1"/>
<stop offset="1" stop-color="#00D3DC"/>
</linearGradient>
<linearGradient id="paint5_linear_494_5242" x1="-1029.13" y1="-267.127" x2="4266.99" y2="149.566" gradientUnits="userSpaceOnUse">
<stop stop-color="#42FFB1"/>
<stop offset="1" stop-color="#00D3DC"/>
</linearGradient>
<linearGradient id="paint6_linear_494_5242" x1="-1037.53" y1="-271.256" x2="4258.58" y2="145.437" gradientUnits="userSpaceOnUse">
<stop stop-color="#42FFB1"/>
<stop offset="1" stop-color="#00D3DC"/>
</linearGradient>
<linearGradient id="paint7_linear_494_5242" x1="-1029.15" y1="-270.255" x2="4241.51" y2="145.105" gradientUnits="userSpaceOnUse">
<stop stop-color="#42FFB1"/>
<stop offset="1" stop-color="#00D3DC"/>
</linearGradient>
<linearGradient id="paint8_linear_494_5242" x1="-1036.31" y1="-268.553" x2="4259.8" y2="148.139" gradientUnits="userSpaceOnUse">
<stop stop-color="#42FFB1"/>
<stop offset="1" stop-color="#00D3DC"/>
</linearGradient>
<linearGradient id="paint9_linear_494_5242" x1="-1029.35" y1="-266.523" x2="4241.32" y2="148.838" gradientUnits="userSpaceOnUse">
<stop stop-color="#42FFB1"/>
<stop offset="1" stop-color="#00D3DC"/>
</linearGradient>
<linearGradient id="paint10_linear_494_5242" x1="-1026.07" y1="-265.364" x2="4244.59" y2="149.997" gradientUnits="userSpaceOnUse">
<stop stop-color="#42FFB1"/>
<stop offset="1" stop-color="#00D3DC"/>
</linearGradient>
<linearGradient id="paint11_linear_494_5242" x1="-1028.76" y1="-271.584" x2="4241.9" y2="143.777" gradientUnits="userSpaceOnUse">
<stop stop-color="#42FFB1"/>
<stop offset="1" stop-color="#00D3DC"/>
</linearGradient>
<linearGradient id="paint12_linear_494_5242" x1="-1033.82" y1="-273.856" x2="4262.3" y2="142.836" gradientUnits="userSpaceOnUse">
<stop stop-color="#42FFB1"/>
<stop offset="1" stop-color="#00D3DC"/>
</linearGradient>
<linearGradient id="paint13_linear_494_5242" x1="-1036.53" y1="-272.713" x2="4259.59" y2="143.98" gradientUnits="userSpaceOnUse">
<stop stop-color="#42FFB1"/>
<stop offset="1" stop-color="#00D3DC"/>
</linearGradient>
<linearGradient id="paint14_linear_494_5242" x1="-1034.19" y1="-271.38" x2="4261.93" y2="145.312" gradientUnits="userSpaceOnUse">
<stop stop-color="#42FFB1"/>
<stop offset="1" stop-color="#00D3DC"/>
</linearGradient>
<linearGradient id="paint15_linear_494_5242" x1="-1036.93" y1="-270.256" x2="4259.19" y2="146.437" gradientUnits="userSpaceOnUse">
<stop stop-color="#42FFB1"/>
<stop offset="1" stop-color="#00D3DC"/>
</linearGradient>
<linearGradient id="paint16_linear_494_5242" x1="-1028.39" y1="-268.474" x2="4242.27" y2="146.886" gradientUnits="userSpaceOnUse">
<stop stop-color="#42FFB1"/>
<stop offset="1" stop-color="#00D3DC"/>
</linearGradient>
<linearGradient id="paint17_linear_494_5242" x1="-1038.66" y1="-267.848" x2="4257.46" y2="148.845" gradientUnits="userSpaceOnUse">
<stop stop-color="#42FFB1"/>
<stop offset="1" stop-color="#00D3DC"/>
</linearGradient>
<linearGradient id="paint18_linear_494_5242" x1="-1029.13" y1="-271.165" x2="4266.99" y2="145.527" gradientUnits="userSpaceOnUse">
<stop stop-color="#42FFB1"/>
<stop offset="1" stop-color="#00D3DC"/>
</linearGradient>
<linearGradient id="paint19_linear_494_5242" x1="-1031.47" y1="-269.818" x2="4264.64" y2="146.875" gradientUnits="userSpaceOnUse">
<stop stop-color="#42FFB1"/>
<stop offset="1" stop-color="#00D3DC"/>
</linearGradient>
<linearGradient id="paint20_linear_494_5242" x1="-1029.13" y1="-268.474" x2="4266.99" y2="148.218" gradientUnits="userSpaceOnUse">
<stop stop-color="#42FFB1"/>
<stop offset="1" stop-color="#00D3DC"/>
</linearGradient>
<linearGradient id="paint21_linear_494_5242" x1="-1031.47" y1="-267.127" x2="4264.64" y2="149.566" gradientUnits="userSpaceOnUse">
<stop stop-color="#42FFB1"/>
<stop offset="1" stop-color="#00D3DC"/>
</linearGradient>
<linearGradient id="paint22_linear_494_5242" x1="-1034.34" y1="-266.006" x2="4261.78" y2="150.687" gradientUnits="userSpaceOnUse">
<stop stop-color="#42FFB1"/>
<stop offset="1" stop-color="#00D3DC"/>
</linearGradient>
<linearGradient id="paint23_linear_494_5242" x1="-1031.47" y1="-272.509" x2="4264.64" y2="144.184" gradientUnits="userSpaceOnUse">
<stop stop-color="#42FFB1"/>
<stop offset="1" stop-color="#00D3DC"/>
</linearGradient>
</defs>
</svg>
