<svg xmlns="http://www.w3.org/2000/svg" width="15" height="13" viewBox="0 0 15 13" fill="none">
  <path d="M13.8198 8.42539V10.3442C13.8183 10.9166 13.5851 11.4649 13.1714 11.8691C12.7577 12.2733 12.1973 12.5002 11.613 12.5002H2.72031C2.13603 12.5002 1.57559 12.2733 1.1619 11.8691C0.748204 11.4649 0.515017 10.9166 0.513473 10.3442V8.00767C0.512993 7.98833 0.516528 7.9691 0.523863 7.95114C0.531198 7.93318 0.542181 7.91687 0.556145 7.90319C0.570109 7.88951 0.586764 7.87875 0.6051 7.87156C0.623435 7.86438 0.64307 7.86092 0.662812 7.86139H1.34884C1.36858 7.86092 1.38822 7.86438 1.40655 7.87156C1.42489 7.87875 1.44154 7.88951 1.45551 7.90319C1.46947 7.91687 1.48045 7.93318 1.48779 7.95114C1.49512 7.9691 1.49866 7.98833 1.49818 8.00767V10.0094C1.49818 11.0328 2.00745 11.5305 3.05516 11.5305H11.2542C12.3019 11.5305 12.8118 11.0328 12.8118 10.0094V8.50367H10.1616C9.873 8.50383 9.59612 8.39182 9.39172 8.19224C9.18731 7.99266 9.07208 7.7218 9.07131 7.4391V5.88882C9.07131 5.30139 9.56016 4.82367 10.1616 4.82367H12.8118V2.9911C12.8118 1.9671 12.3019 1.46939 11.2542 1.46939H3.04757C1.99928 1.46939 1.49001 1.9671 1.49001 2.9911V4.99282C1.49041 5.01211 1.48682 5.03128 1.47945 5.04917C1.47208 5.06706 1.46108 5.08331 1.44712 5.09693C1.43317 5.11054 1.41654 5.12125 1.39825 5.1284C1.37995 5.13555 1.36036 5.139 1.34067 5.13853H0.654645C0.635001 5.13892 0.61548 5.13542 0.597252 5.12823C0.579025 5.12105 0.562468 5.11033 0.548575 5.09672C0.534682 5.08311 0.523739 5.06689 0.516404 5.04904C0.509069 5.03118 0.505492 5.01206 0.505889 4.99282V2.65567C0.507434 2.08339 0.74064 1.53508 1.15435 1.131C1.56806 0.726931 2.1285 0.500091 2.71273 0.500244H11.6048C12.1891 0.500091 12.7496 0.726912 13.1634 1.13097C13.5772 1.53503 13.8105 2.08334 13.8122 2.65567V4.90367C14.2171 5.07053 14.4889 5.45453 14.5059 5.88482V7.4391C14.5059 7.86939 14.2305 8.26482 13.8198 8.42539ZM13.6728 6.16939C13.6728 5.85453 13.4068 5.59853 13.0807 5.59853H10.4965C10.1698 5.59853 9.90376 5.85453 9.90376 6.16939V7.08824C9.90376 7.4031 10.1698 7.6591 10.4965 7.6591H13.0807C13.4068 7.6591 13.6728 7.39967 13.6728 7.08082V6.16939ZM10.8237 7.23396C10.6505 7.23396 10.4778 7.1671 10.3634 7.05453C10.3025 6.9977 10.2541 6.92924 10.2211 6.85337C10.1882 6.77749 10.1715 6.69582 10.1721 6.61339C10.1721 6.42939 10.2374 6.27682 10.3664 6.16082C10.4795 6.05053 10.6475 5.98424 10.8155 5.98424C10.9812 5.98424 11.1504 6.05167 11.2805 6.16824C11.4024 6.27853 11.4753 6.44482 11.4753 6.61339C11.4753 6.76996 11.4018 6.9391 11.2834 7.0551C11.159 7.1698 10.9946 7.23375 10.8237 7.23396ZM0.545557 6.98653C0.532154 6.97018 0.522421 6.95125 0.516993 6.93096C0.511565 6.91068 0.510564 6.8895 0.514056 6.86882L0.513473 6.0991C0.513073 6.07981 0.516667 6.06064 0.524038 6.04275C0.531409 6.02485 0.542404 6.00861 0.55636 5.99499C0.570316 5.98137 0.586943 5.97067 0.605239 5.96352C0.623535 5.95637 0.64312 5.95292 0.662812 5.95339H3.44951L3.31242 5.8151C3.28379 5.78685 3.26694 5.74916 3.26516 5.70939V4.54082C3.26516 4.48367 3.29725 4.43224 3.34917 4.40653L3.37542 4.3951H3.4145C3.47576 4.3951 3.51076 4.42939 3.52418 4.44253L5.49417 6.38996C5.52208 6.41874 5.5376 6.45695 5.53749 6.49664C5.53738 6.53634 5.52166 6.57447 5.49359 6.6031L3.52418 8.54996C3.49482 8.57844 3.45577 8.59533 3.4145 8.59739L3.37017 8.59567L3.34975 8.58596C3.3242 8.57362 3.30271 8.55447 3.28775 8.53072C3.27279 8.50698 3.26497 8.47958 3.26516 8.45167V7.2831C3.26516 7.22367 3.29958 7.18996 3.31242 7.17739L3.44951 7.0391H0.662812C0.640506 7.03944 0.618405 7.03489 0.59812 7.0258C0.577835 7.0167 0.559877 7.00329 0.545557 6.98653Z" fill="white" fill-opacity="0.5"/>
</svg>