<svg xmlns="http://www.w3.org/2000/svg" width="15" height="11" viewBox="0 0 15 11" fill="none">
  <path d="M0.505859 4.73348H14.502V3.15464H0.505859V1.60611C0.505859 0.993971 1.03977 0.493652 1.69268 0.493652H13.3171C13.97 0.493652 14.5059 0.994274 14.5059 1.60581V9.3815C14.5059 9.99364 13.972 10.4937 13.319 10.4937H1.69268C1.03977 10.4937 0.505859 9.99364 0.505859 9.3815V4.73317V4.73348ZM4.74181 7.73599C4.82352 7.65814 4.86941 7.55257 4.86941 7.4425C4.86941 7.33243 4.82352 7.22686 4.74181 7.14901L3.16522 5.64866L1.58863 7.1487C1.52762 7.20666 1.48601 7.28053 1.46907 7.361C1.45212 7.44147 1.46059 7.52491 1.49342 7.60079C1.52624 7.67667 1.58194 7.74159 1.65348 7.78734C1.72502 7.83308 1.80919 7.85761 1.89536 7.85782C2.008 7.85782 2.11554 7.81751 2.20081 7.73599L2.71754 7.2378V9.17301C2.71754 9.4018 2.92468 9.58817 3.16522 9.58817C3.40545 9.58817 3.61259 9.4018 3.61259 9.17301V7.2378L4.12931 7.73599C4.16938 7.77456 4.21707 7.80517 4.26964 7.82607C4.32221 7.84696 4.3786 7.85772 4.43556 7.85772C4.49253 7.85772 4.54892 7.84696 4.60149 7.82607C4.65406 7.80517 4.70175 7.77456 4.74181 7.73599Z" fill="white" fill-opacity="0.5"/>
</svg>