<svg xmlns="http://www.w3.org/2000/svg" width="15" height="15" viewBox="0 0 15 15" fill="none">
  <path fill-rule="evenodd" clip-rule="evenodd" d="M2.08556 9.35069C1.76347 8.40988 1.69189 7.40143 1.87786 6.42456C2.46077 6.72493 3.05641 6.66638 3.9855 6.40102C4.97441 6.11784 5.23723 6.15411 5.71068 6.83502C6.13386 7.44338 6.0785 7.65211 5.49559 8.32029L5.40268 8.4272C4.61995 9.32957 4.41695 10.041 5.06541 11.0248C5.64513 11.9062 6.25859 12.0602 7.49186 11.9857L7.5051 11.985C7.65888 11.976 7.73162 11.9717 7.81641 11.9698C8.53168 11.9495 8.91541 12.1315 9.26732 12.9447C8.32121 13.2509 7.31169 13.3054 6.3381 13.103C5.36452 12.9005 4.46042 12.4481 3.71478 11.7902C2.96913 11.1322 2.40764 10.2915 2.08556 9.35069ZM3.6355 5.17729C2.87441 5.39493 2.59059 5.40956 2.27113 5.16584H2.27177C2.63835 4.34274 3.19396 3.61774 3.89344 3.04977C4.59293 2.48179 5.41656 2.08687 6.29739 1.8971C6.69596 1.81123 7.10117 1.76846 7.50611 1.76863C7.51845 2.70486 8.06566 3.55667 9.0834 4.28511C10.7131 5.45284 10.9136 5.79456 10.5426 6.95784C9.96639 8.76427 10.857 9.82736 12.6493 10.0106C12.5561 10.2013 12.4521 10.3872 12.3377 10.5672C11.8546 11.3278 11.1987 11.9635 10.4236 12.4229C9.83559 11.1171 8.99814 10.6627 7.78014 10.6971C7.67514 10.7003 7.59177 10.7047 7.41486 10.7156C6.59586 10.7646 6.38204 10.7111 6.12877 10.3255C5.86913 9.9322 5.91241 9.78266 6.36423 9.26084L6.45459 9.15711C7.37668 8.10011 7.58795 7.30466 6.75559 6.10829C5.89714 4.87438 5.08832 4.76175 3.6355 5.17729ZM13.0839 8.78522C13.14 8.54239 13.1804 8.2955 13.2044 8.04604C13.291 7.14917 13.1647 6.24453 12.8358 5.40564C12.507 4.56675 11.9849 3.81729 11.3119 3.21816C10.6389 2.61904 9.83401 2.18715 8.9627 1.9576C8.90281 1.94183 8.84273 1.92703 8.78247 1.91323C8.85257 2.36996 9.18287 2.81282 9.8203 3.26947C11.8414 4.71656 12.3187 5.53238 11.744 7.33584C11.4177 8.36029 11.7873 8.75791 13.0839 8.78522ZM0.505859 7.49366C0.505859 11.3596 3.63995 14.4937 7.50586 14.4937C11.3718 14.4937 14.5059 11.3596 14.5059 7.49366C14.5059 3.62774 11.3718 0.493652 7.50586 0.493652C3.63995 0.493652 0.505859 3.62774 0.505859 7.49366Z" fill="white" fill-opacity="0.5"/>
</svg>