<svg width="35" height="31" viewBox="0 0 35 31" fill="none" xmlns="http://www.w3.org/2000/svg">
<g id="Frame 427320397">
<g id="Group 48098490">
<g id="Group">
<g id="Group_2">
<path id="Vector" d="M20.1454 28.3282C19.1661 27.6338 18.3267 26.9393 17.4873 26.106C16.6479 26.2449 15.8085 26.3838 14.9691 26.3838C8.95347 26.3838 4.05705 21.5227 4.05705 15.5504C4.05705 9.57822 8.95347 4.7171 14.9691 4.7171C20.9847 4.7171 25.8812 9.57822 25.8812 15.5504C25.8812 20.2727 22.8034 24.3004 18.4666 25.8282C19.1661 26.5227 19.8656 27.0782 20.7049 27.6338C21.2645 27.9116 21.6842 28.3282 22.2438 28.606C26.8605 26.106 29.9383 21.2449 29.9383 15.5504C29.9383 7.35599 23.2231 0.689331 14.9691 0.689331C6.7151 0.689331 0 7.35599 0 15.5504C0 23.7449 6.7151 30.4116 14.9691 30.4116C17.2075 30.4116 19.4459 29.856 21.2645 29.0227C20.9847 28.8838 20.5651 28.606 20.1454 28.3282Z" fill="#7C67FF"/>
</g>
<g id="Group_3">
<path id="Vector_2" d="M33.9954 22.0784C33.2959 20.6895 32.1767 19.3006 30.7778 18.0506C30.498 19.5784 30.0783 21.1061 29.3788 22.3561C29.7985 22.9117 30.2181 23.4672 30.4979 23.8839C31.0575 24.995 31.1975 25.8284 30.9177 26.1061C30.6379 26.3839 29.9384 26.6617 28.6793 26.5228C27.0005 26.245 25.0419 25.5506 23.3631 24.3006C19.5859 21.6617 18.3268 18.6061 18.8864 17.7728C19.0263 17.495 19.5859 17.3561 20.4253 17.3561C21.8243 17.3561 24.2025 17.9117 26.5808 19.7172C27.4202 20.2728 28.2596 20.9672 28.9591 21.6617C29.5186 20.2728 29.9384 18.8839 30.2182 17.3561C29.7985 17.0784 29.3787 16.6617 28.9591 16.3839C23.6429 12.6339 17.9071 12.3561 15.6687 15.5506C13.4303 18.745 15.8086 24.0228 21.1248 27.6339C23.5031 29.3006 26.0212 30.2728 28.2596 30.5506C28.6793 30.5506 29.099 30.6894 29.5187 30.6894C31.6172 30.6894 33.2959 29.995 34.4151 28.4672C35.2545 26.8006 35.2545 24.5784 33.9954 22.0784Z" fill="#7C67FF"/>
</g>
</g>
</g>
</g>
</svg>
