<svg xmlns="http://www.w3.org/2000/svg" width="26" height="24" viewBox="0 0 26 24" fill="none">
  <path d="M23.8125 1L14.4373 8.03084L16.1807 3.88734L23.8125 1Z" fill="#E17726" stroke="#E17726" stroke-width="0.25" stroke-linecap="round" stroke-linejoin="round"/>
  <path d="M2.19287 1L11.4846 8.09646L9.82475 3.88733L2.19287 1Z" fill="#E27625" stroke="#E27625" stroke-width="0.25" stroke-linecap="round" stroke-linejoin="round"/>
  <path d="M20.4394 17.3032L17.9448 21.1655L23.2862 22.6561L24.8163 17.3876L20.4394 17.3032Z" fill="#E27625" stroke="#E27625" stroke-width="0.25" stroke-linecap="round" stroke-linejoin="round"/>
  <path d="M1.19971 17.3876L2.72052 22.6561L8.05264 21.1655L5.5674 17.3032L1.19971 17.3876Z" fill="#E27625" stroke="#E27625" stroke-width="0.25" stroke-linecap="round" stroke-linejoin="round"/>
  <path d="M7.76473 10.7785L6.28101 13.0472L11.5668 13.2909L11.3905 7.52563L7.76473 10.7785Z" fill="#E27625" stroke="#E27625" stroke-width="0.25" stroke-linecap="round" stroke-linejoin="round"/>
  <path d="M18.2429 10.7783L14.5614 7.45972L14.4409 13.2906L19.7266 13.0469L18.2429 10.7783Z" fill="#E27625" stroke="#E27625" stroke-width="0.25" stroke-linecap="round" stroke-linejoin="round"/>
  <path d="M8.05005 21.1623L11.2493 19.5968L8.49518 17.4219L8.05005 21.1623Z" fill="#E27625" stroke="#E27625" stroke-width="0.25" stroke-linecap="round" stroke-linejoin="round"/>
  <path d="M14.7524 19.597L17.9424 21.1625L17.5066 17.4221L14.7524 19.597Z" fill="#E27625" stroke="#E27625" stroke-width="0.25" stroke-linecap="round" stroke-linejoin="round"/>
  <path d="M17.9432 21.1671L14.7532 19.6016L15.0129 21.7014L14.985 22.592L17.9432 21.1671Z" fill="#D5BFB2" stroke="#D5BFB2" stroke-width="0.25" stroke-linecap="round" stroke-linejoin="round"/>
  <path d="M8.05127 21.1669L11.0187 22.5919L11.0002 21.7013L11.2506 19.6014L8.05127 21.1669Z" fill="#D5BFB2" stroke="#D5BFB2" stroke-width="0.25" stroke-linecap="round" stroke-linejoin="round"/>
  <path d="M11.0748 16.036L8.42261 15.2486L10.2959 14.3767L11.0748 16.036Z" fill="#233447" stroke="#233447" stroke-width="0.25" stroke-linecap="round" stroke-linejoin="round"/>
  <path d="M14.9265 16.036L15.7055 14.3767L17.588 15.2486L14.9265 16.036Z" fill="#233447" stroke="#233447" stroke-width="0.25" stroke-linecap="round" stroke-linejoin="round"/>
  <path d="M8.0502 21.1654L8.51382 17.3031L5.56494 17.3875L8.0502 21.1654Z" fill="#CC6228" stroke="#CC6228" stroke-width="0.25" stroke-linecap="round" stroke-linejoin="round"/>
  <path d="M17.4888 17.3032L17.9432 21.1655L20.4377 17.3877L17.4888 17.3032Z" fill="#CC6228" stroke="#CC6228" stroke-width="0.25" stroke-linecap="round" stroke-linejoin="round"/>
  <path d="M19.723 13.0496L14.4373 13.2933L14.9287 16.04L15.7077 14.3807L17.5902 15.2526L19.723 13.0496Z" fill="#CC6228" stroke="#CC6228" stroke-width="0.25" stroke-linecap="round" stroke-linejoin="round"/>
  <path d="M8.4197 15.2526L10.2929 14.3807L11.0719 16.04L11.5633 13.2933L6.27759 13.0496L8.4197 15.2526Z" fill="#CC6228" stroke="#CC6228" stroke-width="0.25" stroke-linecap="round" stroke-linejoin="round"/>
  <path d="M6.27759 13.0496L8.4939 17.4275L8.41973 15.2526L6.27759 13.0496Z" fill="#E27525" stroke="#E27525" stroke-width="0.25" stroke-linecap="round" stroke-linejoin="round"/>
  <path d="M17.5947 15.2526L17.5112 17.4275L19.7275 13.0496L17.5947 15.2526Z" fill="#E27525" stroke="#E27525" stroke-width="0.25" stroke-linecap="round" stroke-linejoin="round"/>
  <path d="M11.5633 13.287L11.0718 16.0338L11.6931 19.2773L11.8322 15.0025L11.5633 13.287Z" fill="#E27525" stroke="#E27525" stroke-width="0.25" stroke-linecap="round" stroke-linejoin="round"/>
  <path d="M14.4369 13.287L14.1772 14.9932L14.3071 19.2773L14.9284 16.0338L14.4369 13.287Z" fill="#E27525" stroke="#E27525" stroke-width="0.25" stroke-linecap="round" stroke-linejoin="round"/>
  <path d="M14.9284 16.0342L14.3071 19.2778L14.7523 19.5966L17.5064 17.4217L17.5899 15.2468L14.9284 16.0342Z" fill="#F5841F" stroke="#F5841F" stroke-width="0.25" stroke-linecap="round" stroke-linejoin="round"/>
  <path d="M8.42261 15.2468L8.49684 17.4217L11.2509 19.5966L11.6961 19.2778L11.0748 16.0342L8.42261 15.2468Z" fill="#F5841F" stroke="#F5841F" stroke-width="0.25" stroke-linecap="round" stroke-linejoin="round"/>
  <path d="M14.9877 22.5909L15.0155 21.7004L14.7744 21.4941H11.232L11.0002 21.7004L11.0187 22.5909L8.05127 21.166L9.08994 22.0285L11.1949 23.5003H14.8022L16.9165 22.0285L17.9458 21.166L14.9877 22.5909Z" fill="#C0AC9D" stroke="#C0AC9D" stroke-width="0.25" stroke-linecap="round" stroke-linejoin="round"/>
  <path d="M14.7489 19.5995L14.3037 19.2808H11.6887L11.2436 19.5995L10.9932 21.6994L11.225 21.4931H14.7674L15.0085 21.6994L14.7489 19.5995Z" fill="#161616" stroke="#161616" stroke-width="0.25" stroke-linecap="round" stroke-linejoin="round"/>
  <path d="M24.2118 8.49016L25.0001 4.60916L23.8131 1L14.7532 7.79651L18.2399 10.7775L23.1639 12.2306L24.2489 10.9463L23.776 10.5994L24.5271 9.90577L23.9522 9.45577L24.7033 8.87454L24.2118 8.49016Z" fill="#763E1A" stroke="#763E1A" stroke-width="0.25" stroke-linecap="round" stroke-linejoin="round"/>
  <path d="M1 4.60916L1.7975 8.49016L1.28747 8.87454L2.04787 9.45577L1.47294 9.90577L2.22406 10.5994L1.75113 10.9463L2.8361 12.2306L7.76022 10.7775L11.2469 7.79651L2.18698 1L1 4.60916Z" fill="#763E1A" stroke="#763E1A" stroke-width="0.25" stroke-linecap="round" stroke-linejoin="round"/>
  <path d="M23.1679 12.2351L18.2438 10.782L19.7275 13.0506L17.5112 17.4285L20.4416 17.391H24.8185L23.1679 12.2351Z" fill="#F5841F" stroke="#F5841F" stroke-width="0.25" stroke-linecap="round" stroke-linejoin="round"/>
  <path d="M7.75928 10.782L2.83521 12.2351L1.19385 17.391H5.56154L8.49187 17.4285L6.27558 13.0506L7.75928 10.782Z" fill="#F5841F" stroke="#F5841F" stroke-width="0.25" stroke-linecap="round" stroke-linejoin="round"/>
  <path d="M14.4364 13.2897L14.7517 7.79625L16.1798 3.88708H9.81836L11.2464 7.79625L11.5617 13.2897L11.6823 15.0145L11.6915 19.2799H14.3066L14.3159 15.0145L14.4364 13.2897Z" fill="#F5841F" stroke="#F5841F" stroke-width="0.25" stroke-linecap="round" stroke-linejoin="round"/>
</svg>