<svg xmlns="http://www.w3.org/2000/svg" width="25" height="25" viewBox="0 0 25 25" fill="none">
  <mask id="mask0_567_4497" style="mask-type:luminance" maskUnits="userSpaceOnUse" x="0" y="0" width="25" height="25">
    <path d="M0.975586 4.5C0.975586 2.29086 2.76645 0.5 4.97559 0.5H20.9756C23.1847 0.5 24.9756 2.29086 24.9756 4.5V20.5C24.9756 22.7091 23.1847 24.5 20.9756 24.5H4.97559C2.76645 24.5 0.975586 22.7091 0.975586 20.5V4.5Z" fill="white"/>
  </mask>
  <g mask="url(#mask0_567_4497)">
    <rect x="0.975586" y="0.5" width="23.94" height="23.94" rx="4" fill="#3396FF"/>
    <path d="M8.32667 9.43786C10.8941 6.93412 15.0569 6.93412 17.6244 9.43786L17.9334 9.73918C18.0618 9.86434 18.0618 10.0673 17.9334 10.1925L16.8764 11.2233C16.8122 11.2859 16.7081 11.2859 16.6439 11.2233L16.2187 10.8086C14.4275 9.06196 11.5235 9.06196 9.73235 10.8086L9.27695 11.2527C9.21275 11.3153 9.10871 11.3153 9.04451 11.2527L7.98749 10.2219C7.85909 10.0967 7.85909 9.89374 7.98749 9.76858L8.32667 9.43786ZM19.8105 11.5696L20.7512 12.487C20.8796 12.6122 20.8796 12.8151 20.7512 12.9403L16.5092 17.0769C16.3809 17.2022 16.1727 17.2022 16.0443 17.0769L13.0337 14.1411C13.0016 14.1098 12.9495 14.1098 12.9174 14.1411L9.90677 17.0769C9.77843 17.2022 9.57029 17.2022 9.44189 17.0769L5.1998 12.9402C5.07142 12.8151 5.07142 12.6121 5.1998 12.4869L6.14057 11.5695C6.26894 11.4444 6.47708 11.4444 6.60545 11.5695L9.61619 14.5055C9.64829 14.5368 9.70031 14.5368 9.73241 14.5055L12.743 11.5695C12.8714 11.4443 13.0795 11.4443 13.2079 11.5695L16.2186 14.5055C16.2507 14.5368 16.3028 14.5368 16.3349 14.5055L19.3456 11.5696C19.4739 11.4444 19.6821 11.4444 19.8105 11.5696Z" fill="white"/>
  </g>
</svg>