<svg width="20" height="20" viewBox="0 0 20 20" fill="none" xmlns="http://www.w3.org/2000/svg">
<g id="Frame 427321521">
<g id="Group 48098735">
<path id="Vector" d="M9.9999 0C10.7017 0 11.0525 0.350877 11.0525 1.05263V4.21053C11.0525 4.91228 10.7017 5.26316 9.9999 5.26316C9.29814 5.26316 8.94727 4.91228 8.94727 4.21053V1.05263C8.94727 0.350877 9.29814 0 9.9999 0Z" fill="white"/>
<path id="Vector_2" opacity="0.6" d="M9.9999 14.7373C10.7017 14.7373 11.0525 15.0882 11.0525 15.7899V18.9478C11.0525 19.6496 10.7017 20.0005 9.9999 20.0005C9.29814 20.0005 8.94727 19.6496 8.94727 18.9478V15.7899C8.94727 15.0882 9.29814 14.7373 9.9999 14.7373Z" fill="white"/>
<path id="Vector_3" opacity="0.8" d="M20.0005 9.9999C20.0005 10.2791 19.8896 10.5468 19.6922 10.7442C19.4947 10.9416 19.227 11.0525 18.9478 11.0525H15.7899C15.5108 11.0525 15.243 10.9416 15.0456 10.7442C14.8482 10.5468 14.7373 10.2791 14.7373 9.9999C14.7373 9.72072 14.8482 9.45298 15.0456 9.25557C15.243 9.05817 15.5108 8.94727 15.7899 8.94727H18.9478C19.227 8.94727 19.4947 9.05817 19.6922 9.25557C19.8896 9.45298 20.0005 9.72072 20.0005 9.9999Z" fill="white"/>
<path id="Vector_4" opacity="0.4" d="M5.26316 9.9999C5.26316 10.2791 5.15226 10.5468 4.95485 10.7442C4.75744 10.9416 4.4897 11.0525 4.21053 11.0525H1.05263C0.773456 11.0525 0.505715 10.9416 0.308309 10.7442C0.110902 10.5468 0 10.2791 0 9.9999C0 9.72072 0.110902 9.45298 0.308309 9.25557C0.505715 9.05817 0.773456 8.94727 1.05263 8.94727H4.21053C4.4897 8.94727 4.75744 9.05817 4.95485 9.25557C5.15226 9.45298 5.26316 9.72072 5.26316 9.9999Z" fill="white"/>
<path id="Vector_5" opacity="0.9" d="M17.0713 2.92964C17.2684 3.12701 17.3792 3.39455 17.3792 3.6735C17.3792 3.95245 17.2684 4.21999 17.0713 4.41736L14.8397 6.65175C14.6423 6.8494 14.3744 6.96052 14.095 6.96065C13.8156 6.96078 13.5476 6.84992 13.3499 6.65245C13.1523 6.45498 13.0411 6.18708 13.041 5.90768C13.0409 5.62828 13.1517 5.36028 13.3492 5.16262L15.5822 2.92964C15.68 2.83182 15.796 2.75423 15.9238 2.70129C16.0515 2.64834 16.1885 2.62109 16.3268 2.62109C16.4651 2.62109 16.602 2.64834 16.7297 2.70129C16.8575 2.75423 16.9736 2.83182 17.0713 2.92964Z" fill="white"/>
<path id="Vector_6" opacity="0.5" d="M6.6515 13.3483C6.74932 13.4461 6.82691 13.5621 6.87985 13.6899C6.9328 13.8176 6.96005 13.9546 6.96005 14.0929C6.96005 14.2312 6.9328 14.3681 6.87985 14.4959C6.82691 14.6236 6.74932 14.7397 6.6515 14.8374L4.41852 17.0704C4.32146 17.171 4.20535 17.2512 4.07695 17.3065C3.94855 17.3617 3.81044 17.3908 3.67067 17.3921C3.5309 17.3934 3.39228 17.3668 3.26289 17.3139C3.1335 17.2611 3.01594 17.183 2.91706 17.0842C2.81818 16.9854 2.73996 16.8679 2.68697 16.7386C2.63398 16.6092 2.60729 16.4706 2.60843 16.3308C2.60958 16.1911 2.63855 16.0529 2.69366 15.9245C2.74877 15.796 2.8289 15.6798 2.92939 15.5827L5.16097 13.3483C5.25875 13.2503 5.37491 13.1725 5.5028 13.1194C5.63068 13.0664 5.76778 13.0391 5.90623 13.0391C6.04469 13.0391 6.18179 13.0664 6.30967 13.1194C6.43756 13.1725 6.55372 13.2503 6.6515 13.3483Z" fill="white"/>
<path id="Vector_7" opacity="0.2" d="M2.92894 2.92964C2.73182 3.12701 2.62109 3.39455 2.62109 3.6735C2.62109 3.95245 2.73182 4.21999 2.92894 4.41736L5.16052 6.65175C5.35799 6.8494 5.62589 6.96052 5.90529 6.96065C6.18468 6.96078 6.45269 6.84992 6.65034 6.65245C6.848 6.45498 6.95912 6.18708 6.95925 5.90768C6.95938 5.62828 6.84851 5.36028 6.65104 5.16262L4.41806 2.92964C4.32031 2.83182 4.20424 2.75423 4.07648 2.70129C3.94873 2.64834 3.81179 2.62109 3.6735 2.62109C3.53521 2.62109 3.39828 2.64834 3.27052 2.70129C3.14277 2.75423 3.02669 2.83182 2.92894 2.92964Z" fill="white"/>
<path id="Vector_8" opacity="0.7" d="M13.3486 13.3483C13.2508 13.4461 13.1732 13.5621 13.1202 13.6899C13.0673 13.8176 13.04 13.9546 13.04 14.0929C13.04 14.2312 13.0673 14.3681 13.1202 14.4959C13.1732 14.6236 13.2508 14.7397 13.3486 14.8374L15.5816 17.0704C15.6786 17.171 15.7947 17.2512 15.9231 17.3065C16.0515 17.3617 16.1896 17.3908 16.3294 17.3921C16.4692 17.3934 16.6078 17.3668 16.7372 17.3139C16.8666 17.2611 16.9841 17.183 17.083 17.0842C17.1819 16.9854 17.2601 16.8679 17.3131 16.7386C17.3661 16.6092 17.3928 16.4706 17.3917 16.3308C17.3905 16.1911 17.3615 16.0529 17.3064 15.9245C17.2513 15.796 17.1712 15.6798 17.0707 15.5827L14.8391 13.3483C14.7413 13.2503 14.6252 13.1725 14.4973 13.1194C14.3694 13.0664 14.2323 13.0391 14.0938 13.0391C13.9554 13.0391 13.8183 13.0664 13.6904 13.1194C13.5625 13.1725 13.4464 13.2503 13.3486 13.3483Z" fill="white"/>
</g>
</g>
</svg>
