<svg width="12" height="13" viewBox="0 0 12 13" fill="none" xmlns="http://www.w3.org/2000/svg">
<path id="Vector" d="M8.14059 2.78571C8.38376 2.78571 8.61697 2.87602 8.78891 3.03677C8.96086 3.19751 9.05746 3.41553 9.05746 3.64286V11.6429C9.05746 11.8702 8.96086 12.0882 8.78891 12.2489C8.61697 12.4097 8.38376 12.5 8.14059 12.5H1.41687C1.29647 12.5 1.17724 12.4778 1.066 12.4348C0.954759 12.3917 0.853684 12.3285 0.768545 12.2489C0.683406 12.1694 0.61587 12.0749 0.569793 11.9709C0.523715 11.8669 0.5 11.7554 0.5 11.6429V3.64286C0.5 3.41553 0.596599 3.19751 0.768545 3.03677C0.940492 2.87602 1.1737 2.78571 1.41687 2.78571H8.14059ZM7.83496 3.92857H1.72249V11.3571H7.83496V3.92857ZM10.5831 0.5C10.8112 0.499868 11.0311 0.579177 11.1999 0.722447C11.3688 0.865718 11.4744 1.06267 11.4963 1.27486L11.5 1.35714V9.06743C11.4998 9.21307 11.4402 9.35316 11.3332 9.45907C11.2263 9.56497 11.0801 9.62871 10.9246 9.63724C10.769 9.64578 10.6159 9.59847 10.4964 9.50499C10.377 9.41151 10.3002 9.27891 10.2818 9.13429L10.2775 9.06743V1.64286H4.16748C4.01777 1.64284 3.87327 1.59145 3.76139 1.49845C3.64951 1.40544 3.57803 1.27729 3.56051 1.13829L3.55623 1.07143C3.55625 0.931467 3.61122 0.796379 3.71071 0.691788C3.81019 0.587196 3.94728 0.520376 4.09597 0.504L4.16748 0.5H10.5831Z" fill="white"/>
</svg>
