<svg width="85" height="20" viewBox="0 0 85 20" fill="none" xmlns="http://www.w3.org/2000/svg">
<g id="Frame 427321519">
<g id="Group">
<path id="Vector" d="M38.7963 10.8261C38.7963 12.678 38.1481 14.252 36.7592 15.5483L37.9629 17.5854H35.1851L34.7222 16.8447C33.9814 17.215 33.1481 17.3076 32.3148 17.3076C30.5555 17.3076 29.074 16.6595 27.7777 15.3632C26.4813 14.0669 25.9258 12.5854 25.9258 10.7335C25.9258 8.97422 26.5739 7.40013 27.7777 6.10382C28.9814 4.80751 30.5555 4.25195 32.3148 4.25195C34.1666 4.25195 35.6481 4.90011 36.8518 6.10382C38.2407 7.49272 38.7963 9.06682 38.7963 10.8261ZM36.2037 10.8261C36.2037 9.71497 35.8333 8.88163 35.0926 8.04829C34.3518 7.30754 33.4259 6.93717 32.4073 6.93717C31.3888 6.93717 30.4629 7.30754 29.7221 8.04829C28.9814 8.78904 28.611 9.71497 28.611 10.8261C28.611 11.8446 28.9814 12.7705 29.7221 13.5113C30.4629 14.252 31.3888 14.6224 32.4073 14.6224C32.7777 14.6224 33.0555 14.5298 33.3333 14.4372L31.6666 11.752H34.4444L35.3703 13.2335C35.9259 12.4928 36.2037 11.752 36.2037 10.8261Z" fill="white"/>
<path id="Vector_2" d="M45.8329 16.9382V16.0122C45.2774 16.753 44.4441 17.1234 43.3329 17.1234C42.3144 17.1234 41.4811 16.8456 41.0181 16.1974C40.5551 15.5493 40.2773 14.7159 40.2773 13.5122V8.23438H42.6848V13.4196C42.6848 14.5307 43.2404 15.0863 44.2589 15.0863C44.8144 15.0863 45.1848 14.9011 45.4626 14.6233C45.7404 14.3455 45.9255 13.8826 45.9255 13.4196V8.23438H48.333V17.0308H45.8329V16.9382Z" fill="white"/>
<path id="Vector_3" d="M58.9813 12.9571V13.2349H52.1294C52.222 13.7904 52.4998 14.2534 52.8702 14.6238C53.3331 14.9941 53.7961 15.0867 54.4443 15.0867C54.9072 15.0867 55.2776 14.9941 55.648 14.7164C56.0183 14.4386 56.2961 14.1608 56.4813 13.883L58.5184 14.9015C57.5924 16.383 56.2035 17.0312 54.3517 17.0312C52.9628 17.0312 51.759 16.5682 50.9257 15.7349C50.0924 14.9015 49.6294 13.7904 49.6294 12.4015C49.6294 11.1052 50.0924 9.99409 51.0183 9.16075C51.9442 8.32741 53.0554 7.95703 54.4443 7.95703C55.8332 7.95703 56.9443 8.42 57.685 9.34593C58.4258 10.2719 58.9813 11.4756 58.9813 12.9571ZM52.1294 11.4756H56.3887C56.2961 11.0126 56.0183 10.6422 55.648 10.3645C55.2776 10.0867 54.8146 9.99408 54.2591 9.99408C53.7035 9.99408 53.3331 10.0867 52.8702 10.3645C52.5924 10.7348 52.3146 11.0126 52.1294 11.4756Z" fill="white"/>
<path id="Vector_4" d="M62.8697 8.23206V9.15799C63.4252 8.41725 64.2585 8.04688 65.3697 8.04688C66.3882 8.04688 67.2215 8.32466 67.6845 8.97281C68.2401 9.62096 68.4253 10.4543 68.4253 11.5654V16.9358H66.0178V11.7506C66.0178 10.6395 65.4623 10.0839 64.4437 10.0839C63.8882 10.0839 63.5178 10.2691 63.24 10.5469C62.9623 10.8247 62.7771 11.2876 62.7771 11.7506V16.9358H60.3696V8.13946H62.8697V8.23206Z" fill="white"/>
<path id="Vector_5" d="M69.6294 8.23306H70.4627V5.54785H72.8702V8.23306H74.5368V9.99232H72.8702V14.4368C72.8702 14.8072 73.0554 14.9924 73.4257 14.9924H74.5368V17.0294H72.8702C72.0368 17.0294 71.4813 16.7517 71.1109 16.2887C70.7405 15.8257 70.4627 15.2702 70.4627 14.622V9.99232H69.6294V8.23306Z" fill="white"/>
<path id="Vector_6" d="M84.9995 8.23225V17.0286H82.5921V16.2879C82.3143 16.5657 81.944 16.8434 81.3884 17.0286C80.9254 17.2138 80.3699 17.3064 79.9069 17.3064C78.7032 17.3064 77.5921 16.8434 76.7587 15.9175C75.8328 14.9916 75.4624 13.973 75.4624 12.6767C75.4624 11.3804 75.9254 10.3619 76.7587 9.43597C77.5921 8.51003 78.7032 8.13965 79.9069 8.13965C80.4625 8.13965 80.9254 8.23224 81.3884 8.41743C81.8514 8.60262 82.3143 8.78781 82.5921 9.15818V8.32485H84.9995V8.23225ZM82.0365 10.8249C81.5736 10.3619 81.018 10.0841 80.2773 10.0841C79.5365 10.0841 78.981 10.3619 78.518 10.8249C78.055 11.2878 77.7772 11.8434 77.7772 12.5841C77.7772 13.2323 77.9624 13.8805 78.4254 14.3434C78.8884 14.8064 79.4439 15.0842 80.1847 15.0842C80.9254 15.0842 81.481 14.8064 81.9439 14.3434C82.4069 13.8805 82.5921 13.3249 82.5921 12.5841C82.6847 11.8434 82.4995 11.2878 82.0365 10.8249Z" fill="white"/>
</g>
<g id="Group 48098487">
<g id="Group_2">
<g id="Group_3">
<path id="Vector_7" d="M13.3334 18.4261C12.6853 17.9631 12.1297 17.5002 11.5742 16.9446C11.0186 17.0372 10.463 17.1298 9.90748 17.1298C5.92596 17.1298 2.6852 13.889 2.6852 9.90749C2.6852 5.92598 5.92596 2.6852 9.90748 2.6852C13.889 2.6852 17.1298 5.92598 17.1298 9.90749C17.1298 13.0557 15.0927 15.7409 12.2223 16.7594C12.6853 17.2224 13.1483 17.5928 13.7038 17.9631C14.0742 18.1483 14.352 18.4261 14.7224 18.6113C17.7779 16.9446 19.815 13.7038 19.815 9.90749C19.815 4.44448 15.3705 0 9.90748 0C4.44447 0 0 4.44448 0 9.90749C0 15.3705 4.44447 19.815 9.90748 19.815C11.389 19.815 12.8705 19.4446 14.0742 18.8891C13.889 18.7965 13.6112 18.6113 13.3334 18.4261Z" fill="#7C67FF"/>
</g>
<g id="Group_4">
<path id="Vector_8" d="M22.4999 14.2579C22.0369 13.3319 21.2962 12.406 20.3703 11.5727C20.1851 12.5912 19.9073 13.6097 19.4443 14.4431C19.7221 14.8134 19.9999 15.1838 20.1851 15.4616C20.5554 16.2023 20.648 16.7579 20.4629 16.9431C20.2777 17.1283 19.8147 17.3134 18.9814 17.2209C17.8702 17.0357 16.5739 16.5727 15.4628 15.7394C12.9628 13.9801 12.1294 11.943 12.4998 11.3875C12.5924 11.2023 12.9628 11.1097 13.5184 11.1097C14.4443 11.1097 16.0184 11.4801 17.5925 12.6838C18.148 13.0542 18.7036 13.5171 19.1665 13.9801C19.5369 13.0542 19.8147 12.1282 19.9999 11.1097C19.7221 10.9245 19.4443 10.6467 19.1665 10.4615C15.648 7.96152 11.8516 7.77633 10.3702 9.90598C8.88866 12.0356 10.4628 15.5542 13.9813 17.9616C15.5554 19.0727 17.2221 19.7209 18.7036 19.9061C18.9813 19.9061 19.2591 19.9987 19.5369 19.9987C20.9258 19.9987 22.0369 19.5357 22.7777 18.5172C23.3333 17.406 23.3332 15.9246 22.4999 14.2579Z" fill="#7C67FF"/>
</g>
</g>
</g>
</g>
</svg>
