<svg width="14" height="13" viewBox="0 0 14 13" fill="none" xmlns="http://www.w3.org/2000/svg">
<path id="Vector" d="M12.574 3.91567C12.574 3.78436 12.5714 3.65454 12.5656 3.5256C13.1269 3.10735 13.6139 2.5838 13.9991 1.98469C13.476 2.22006 12.9194 2.37235 12.3494 2.43605C12.9427 2.07094 13.3977 1.48702 13.6127 0.786278C13.0572 1.12319 12.4427 1.36405 11.7893 1.48956C11.2658 0.893883 10.5188 0.514477 9.69288 0.500378C8.10676 0.474156 6.82099 1.81452 6.82099 3.49377C6.82099 3.73246 6.84596 3.96394 6.89551 4.18747C4.50703 4.03377 2.39052 2.79052 0.97475 0.916302C0.727714 1.36534 0.585986 1.89012 0.585986 2.45252C0.585986 3.51622 1.09302 4.46162 1.86341 5.01949C1.39178 4.99816 0.949984 4.85532 0.56248 4.62112V4.66019C0.56248 6.14685 1.55275 7.39244 2.86672 7.68306C2.62583 7.75158 2.37176 7.78723 2.11045 7.78595C1.92889 7.78501 1.74793 7.76519 1.57048 7.72681C1.93558 8.9451 2.99672 9.83517 4.25298 9.86483C3.26978 10.6801 2.03124 11.167 0.686553 11.1636C0.454703 11.1636 0.225593 11.1481 0.000976562 11.1199C1.27245 11.992 2.78173 12.5 4.40419 12.5C9.68565 12.5013 12.574 7.90422 12.574 3.91567Z" fill="white"/>
</svg>
